<mxfile host="Electron" modified="2024-06-20T02:42:45.576Z" agent="Mozilla/5.0 (Macintosh; Intel Mac OS X 10_15_7) AppleWebKit/537.36 (KHTML, like Gecko) draw.io/24.5.3 Chrome/124.0.6367.207 Electron/30.0.6 Safari/537.36" etag="9rKDfqIIA7lHu2qrYezi" version="24.5.3" type="device">
  <diagram id="C5RBs43oDa-KdzZeNtuy" name="Page-1">
    <mxGraphModel dx="1289" dy="1429" grid="1" gridSize="10" guides="1" tooltips="1" connect="1" arrows="1" fold="1" page="1" pageScale="1" pageWidth="1169" pageHeight="1654" math="0" shadow="0">
      <root>
        <mxCell id="WIyWlLk6GJQsqaUBKTNV-0" />
        <mxCell id="WIyWlLk6GJQsqaUBKTNV-1" parent="WIyWlLk6GJQsqaUBKTNV-0" />
        <mxCell id="5l5CEExYWrX9c8F28rg7-1" style="edgeStyle=orthogonalEdgeStyle;rounded=0;orthogonalLoop=1;jettySize=auto;html=1;exitX=0.5;exitY=1;exitDx=0;exitDy=0;entryX=0.5;entryY=0;entryDx=0;entryDy=0;" edge="1" parent="WIyWlLk6GJQsqaUBKTNV-1" source="WIyWlLk6GJQsqaUBKTNV-3" target="5l5CEExYWrX9c8F28rg7-0">
          <mxGeometry relative="1" as="geometry" />
        </mxCell>
        <mxCell id="WIyWlLk6GJQsqaUBKTNV-3" value="Kernel inits" style="rounded=1;whiteSpace=wrap;html=1;fontSize=12;glass=0;strokeWidth=1;shadow=0;" parent="WIyWlLk6GJQsqaUBKTNV-1" vertex="1">
          <mxGeometry x="440" y="160" width="120" height="40" as="geometry" />
        </mxCell>
        <mxCell id="5l5CEExYWrX9c8F28rg7-4" style="edgeStyle=orthogonalEdgeStyle;rounded=0;orthogonalLoop=1;jettySize=auto;html=1;entryX=0.5;entryY=0;entryDx=0;entryDy=0;" edge="1" parent="WIyWlLk6GJQsqaUBKTNV-1" source="5l5CEExYWrX9c8F28rg7-0" target="5l5CEExYWrX9c8F28rg7-3">
          <mxGeometry relative="1" as="geometry" />
        </mxCell>
        <mxCell id="5l5CEExYWrX9c8F28rg7-0" value="Turn on Keyboard interruption&lt;div&gt;Close all other&lt;/div&gt;" style="rounded=1;whiteSpace=wrap;html=1;" vertex="1" parent="WIyWlLk6GJQsqaUBKTNV-1">
          <mxGeometry x="400" y="240" width="200" height="40" as="geometry" />
        </mxCell>
        <mxCell id="5l5CEExYWrX9c8F28rg7-7" style="edgeStyle=orthogonalEdgeStyle;rounded=0;orthogonalLoop=1;jettySize=auto;html=1;exitX=0.5;exitY=1;exitDx=0;exitDy=0;entryX=0.5;entryY=0;entryDx=0;entryDy=0;" edge="1" parent="WIyWlLk6GJQsqaUBKTNV-1" source="5l5CEExYWrX9c8F28rg7-3" target="5l5CEExYWrX9c8F28rg7-5">
          <mxGeometry relative="1" as="geometry" />
        </mxCell>
        <mxCell id="5l5CEExYWrX9c8F28rg7-3" value="Waiting for keyboard input" style="rounded=1;whiteSpace=wrap;html=1;" vertex="1" parent="WIyWlLk6GJQsqaUBKTNV-1">
          <mxGeometry x="400" y="320" width="200" height="40" as="geometry" />
        </mxCell>
        <mxCell id="5l5CEExYWrX9c8F28rg7-8" style="edgeStyle=orthogonalEdgeStyle;rounded=0;orthogonalLoop=1;jettySize=auto;html=1;exitX=0;exitY=0.5;exitDx=0;exitDy=0;entryX=0;entryY=0.5;entryDx=0;entryDy=0;" edge="1" parent="WIyWlLk6GJQsqaUBKTNV-1" source="5l5CEExYWrX9c8F28rg7-5" target="5l5CEExYWrX9c8F28rg7-3">
          <mxGeometry relative="1" as="geometry">
            <mxPoint x="320.0000000000001" y="340" as="targetPoint" />
            <Array as="points">
              <mxPoint x="320" y="440" />
              <mxPoint x="320" y="340" />
            </Array>
          </mxGeometry>
        </mxCell>
        <mxCell id="5l5CEExYWrX9c8F28rg7-12" style="edgeStyle=orthogonalEdgeStyle;rounded=0;orthogonalLoop=1;jettySize=auto;html=1;" edge="1" parent="WIyWlLk6GJQsqaUBKTNV-1" source="5l5CEExYWrX9c8F28rg7-5" target="5l5CEExYWrX9c8F28rg7-11">
          <mxGeometry relative="1" as="geometry" />
        </mxCell>
        <mxCell id="5l5CEExYWrX9c8F28rg7-5" value="Scan code start with 0xe0?" style="rhombus;whiteSpace=wrap;html=1;" vertex="1" parent="WIyWlLk6GJQsqaUBKTNV-1">
          <mxGeometry x="380" y="400" width="240" height="80" as="geometry" />
        </mxCell>
        <mxCell id="5l5CEExYWrX9c8F28rg7-6" value="Received keyboard input" style="text;html=1;align=center;verticalAlign=middle;whiteSpace=wrap;rounded=0;" vertex="1" parent="WIyWlLk6GJQsqaUBKTNV-1">
          <mxGeometry x="520" y="370" width="150" height="30" as="geometry" />
        </mxCell>
        <mxCell id="5l5CEExYWrX9c8F28rg7-9" value="&lt;div style=&quot;&quot;&gt;Yes&lt;/div&gt;Return immediately&lt;div&gt;wait for next input&amp;nbsp;&lt;/div&gt;" style="text;html=1;align=left;verticalAlign=middle;whiteSpace=wrap;rounded=0;" vertex="1" parent="WIyWlLk6GJQsqaUBKTNV-1">
          <mxGeometry x="340" y="450" width="140" height="50" as="geometry" />
        </mxCell>
        <mxCell id="5l5CEExYWrX9c8F28rg7-10" value="No" style="text;html=1;align=center;verticalAlign=middle;whiteSpace=wrap;rounded=0;" vertex="1" parent="WIyWlLk6GJQsqaUBKTNV-1">
          <mxGeometry x="520" y="480" width="40" height="30" as="geometry" />
        </mxCell>
        <mxCell id="5l5CEExYWrX9c8F28rg7-15" style="edgeStyle=orthogonalEdgeStyle;rounded=0;orthogonalLoop=1;jettySize=auto;html=1;exitX=1;exitY=0.5;exitDx=0;exitDy=0;entryX=0;entryY=0.5;entryDx=0;entryDy=0;" edge="1" parent="WIyWlLk6GJQsqaUBKTNV-1" source="5l5CEExYWrX9c8F28rg7-11" target="5l5CEExYWrX9c8F28rg7-14">
          <mxGeometry relative="1" as="geometry" />
        </mxCell>
        <mxCell id="5l5CEExYWrX9c8F28rg7-18" style="edgeStyle=orthogonalEdgeStyle;rounded=0;orthogonalLoop=1;jettySize=auto;html=1;exitX=0.5;exitY=1;exitDx=0;exitDy=0;entryX=0.5;entryY=0;entryDx=0;entryDy=0;" edge="1" parent="WIyWlLk6GJQsqaUBKTNV-1" source="5l5CEExYWrX9c8F28rg7-11" target="5l5CEExYWrX9c8F28rg7-17">
          <mxGeometry relative="1" as="geometry" />
        </mxCell>
        <mxCell id="5l5CEExYWrX9c8F28rg7-11" value="Last can code start with 0xe0?" style="rhombus;whiteSpace=wrap;html=1;" vertex="1" parent="WIyWlLk6GJQsqaUBKTNV-1">
          <mxGeometry x="380" y="520" width="240" height="80" as="geometry" />
        </mxCell>
        <mxCell id="5l5CEExYWrX9c8F28rg7-13" value="No" style="text;html=1;align=center;verticalAlign=middle;whiteSpace=wrap;rounded=0;" vertex="1" parent="WIyWlLk6GJQsqaUBKTNV-1">
          <mxGeometry x="520" y="590" width="40" height="30" as="geometry" />
        </mxCell>
        <mxCell id="5l5CEExYWrX9c8F28rg7-19" style="edgeStyle=orthogonalEdgeStyle;rounded=0;orthogonalLoop=1;jettySize=auto;html=1;" edge="1" parent="WIyWlLk6GJQsqaUBKTNV-1" source="5l5CEExYWrX9c8F28rg7-14">
          <mxGeometry relative="1" as="geometry">
            <mxPoint x="500" y="620" as="targetPoint" />
            <Array as="points">
              <mxPoint x="780" y="620" />
            </Array>
          </mxGeometry>
        </mxCell>
        <mxCell id="5l5CEExYWrX9c8F28rg7-14" value="Combine this and last scan code.&lt;div&gt;0xe000 or scancode&lt;/div&gt;" style="rounded=1;whiteSpace=wrap;html=1;" vertex="1" parent="WIyWlLk6GJQsqaUBKTNV-1">
          <mxGeometry x="680" y="540" width="200" height="40" as="geometry" />
        </mxCell>
        <mxCell id="5l5CEExYWrX9c8F28rg7-16" value="Yes" style="text;html=1;align=center;verticalAlign=middle;whiteSpace=wrap;rounded=0;" vertex="1" parent="WIyWlLk6GJQsqaUBKTNV-1">
          <mxGeometry x="610" y="530" width="60" height="30" as="geometry" />
        </mxCell>
        <mxCell id="5l5CEExYWrX9c8F28rg7-21" style="edgeStyle=orthogonalEdgeStyle;rounded=0;orthogonalLoop=1;jettySize=auto;html=1;exitX=1;exitY=0.5;exitDx=0;exitDy=0;" edge="1" parent="WIyWlLk6GJQsqaUBKTNV-1" source="5l5CEExYWrX9c8F28rg7-17" target="5l5CEExYWrX9c8F28rg7-20">
          <mxGeometry relative="1" as="geometry" />
        </mxCell>
        <mxCell id="5l5CEExYWrX9c8F28rg7-26" style="edgeStyle=orthogonalEdgeStyle;rounded=0;orthogonalLoop=1;jettySize=auto;html=1;exitX=0.5;exitY=1;exitDx=0;exitDy=0;entryX=0.5;entryY=0;entryDx=0;entryDy=0;" edge="1" parent="WIyWlLk6GJQsqaUBKTNV-1" source="5l5CEExYWrX9c8F28rg7-17" target="5l5CEExYWrX9c8F28rg7-22">
          <mxGeometry relative="1" as="geometry" />
        </mxCell>
        <mxCell id="5l5CEExYWrX9c8F28rg7-17" value="Ctrl or Shift or Alt&lt;div&gt;Pressed?&lt;/div&gt;" style="rhombus;whiteSpace=wrap;html=1;" vertex="1" parent="WIyWlLk6GJQsqaUBKTNV-1">
          <mxGeometry x="380" y="640" width="240" height="80" as="geometry" />
        </mxCell>
        <mxCell id="5l5CEExYWrX9c8F28rg7-27" style="edgeStyle=orthogonalEdgeStyle;rounded=0;orthogonalLoop=1;jettySize=auto;html=1;exitX=0.5;exitY=1;exitDx=0;exitDy=0;" edge="1" parent="WIyWlLk6GJQsqaUBKTNV-1" source="5l5CEExYWrX9c8F28rg7-20">
          <mxGeometry relative="1" as="geometry">
            <mxPoint x="500" y="740" as="targetPoint" />
            <Array as="points">
              <mxPoint x="780" y="740" />
            </Array>
          </mxGeometry>
        </mxCell>
        <mxCell id="5l5CEExYWrX9c8F28rg7-20" value="Set Ctrl or Shift or Alt to false" style="rounded=1;whiteSpace=wrap;html=1;" vertex="1" parent="WIyWlLk6GJQsqaUBKTNV-1">
          <mxGeometry x="680" y="660" width="200" height="40" as="geometry" />
        </mxCell>
        <mxCell id="5l5CEExYWrX9c8F28rg7-38" style="edgeStyle=orthogonalEdgeStyle;rounded=0;orthogonalLoop=1;jettySize=auto;html=1;exitX=1;exitY=1;exitDx=0;exitDy=0;entryX=0.5;entryY=0;entryDx=0;entryDy=0;" edge="1" parent="WIyWlLk6GJQsqaUBKTNV-1" source="5l5CEExYWrX9c8F28rg7-22" target="5l5CEExYWrX9c8F28rg7-28">
          <mxGeometry relative="1" as="geometry" />
        </mxCell>
        <mxCell id="5l5CEExYWrX9c8F28rg7-39" style="edgeStyle=orthogonalEdgeStyle;rounded=0;orthogonalLoop=1;jettySize=auto;html=1;exitX=1;exitY=0.5;exitDx=0;exitDy=0;" edge="1" parent="WIyWlLk6GJQsqaUBKTNV-1" source="5l5CEExYWrX9c8F28rg7-22" target="5l5CEExYWrX9c8F28rg7-31">
          <mxGeometry relative="1" as="geometry" />
        </mxCell>
        <mxCell id="5l5CEExYWrX9c8F28rg7-40" style="edgeStyle=orthogonalEdgeStyle;rounded=0;orthogonalLoop=1;jettySize=auto;html=1;exitX=0;exitY=1;exitDx=0;exitDy=0;entryX=0.5;entryY=0;entryDx=0;entryDy=0;" edge="1" parent="WIyWlLk6GJQsqaUBKTNV-1" source="5l5CEExYWrX9c8F28rg7-22" target="5l5CEExYWrX9c8F28rg7-30">
          <mxGeometry relative="1" as="geometry" />
        </mxCell>
        <mxCell id="5l5CEExYWrX9c8F28rg7-41" style="edgeStyle=orthogonalEdgeStyle;rounded=0;orthogonalLoop=1;jettySize=auto;html=1;exitX=0;exitY=0.5;exitDx=0;exitDy=0;" edge="1" parent="WIyWlLk6GJQsqaUBKTNV-1" source="5l5CEExYWrX9c8F28rg7-22" target="5l5CEExYWrX9c8F28rg7-29">
          <mxGeometry relative="1" as="geometry" />
        </mxCell>
        <mxCell id="5l5CEExYWrX9c8F28rg7-22" value="Capslock argues with Shift" style="rhombus;whiteSpace=wrap;html=1;" vertex="1" parent="WIyWlLk6GJQsqaUBKTNV-1">
          <mxGeometry x="380" y="760" width="240" height="80" as="geometry" />
        </mxCell>
        <mxCell id="5l5CEExYWrX9c8F28rg7-24" value="No" style="text;html=1;align=center;verticalAlign=middle;whiteSpace=wrap;rounded=0;" vertex="1" parent="WIyWlLk6GJQsqaUBKTNV-1">
          <mxGeometry x="620" y="650" width="60" height="30" as="geometry" />
        </mxCell>
        <mxCell id="5l5CEExYWrX9c8F28rg7-25" value="Yes" style="text;html=1;align=center;verticalAlign=middle;whiteSpace=wrap;rounded=0;" vertex="1" parent="WIyWlLk6GJQsqaUBKTNV-1">
          <mxGeometry x="520" y="710" width="40" height="30" as="geometry" />
        </mxCell>
        <mxCell id="5l5CEExYWrX9c8F28rg7-46" style="edgeStyle=orthogonalEdgeStyle;rounded=0;orthogonalLoop=1;jettySize=auto;html=1;exitX=0.5;exitY=1;exitDx=0;exitDy=0;" edge="1" parent="WIyWlLk6GJQsqaUBKTNV-1" source="5l5CEExYWrX9c8F28rg7-28" target="5l5CEExYWrX9c8F28rg7-42">
          <mxGeometry relative="1" as="geometry" />
        </mxCell>
        <mxCell id="5l5CEExYWrX9c8F28rg7-28" value="Capslock&lt;div&gt;Shift&lt;/div&gt;" style="rounded=1;whiteSpace=wrap;html=1;" vertex="1" parent="WIyWlLk6GJQsqaUBKTNV-1">
          <mxGeometry x="520" y="880" width="80" height="40" as="geometry" />
        </mxCell>
        <mxCell id="5l5CEExYWrX9c8F28rg7-44" style="edgeStyle=orthogonalEdgeStyle;rounded=0;orthogonalLoop=1;jettySize=auto;html=1;exitX=0.5;exitY=1;exitDx=0;exitDy=0;" edge="1" parent="WIyWlLk6GJQsqaUBKTNV-1" source="5l5CEExYWrX9c8F28rg7-29" target="5l5CEExYWrX9c8F28rg7-43">
          <mxGeometry relative="1" as="geometry" />
        </mxCell>
        <mxCell id="5l5CEExYWrX9c8F28rg7-29" value="! Capslock&lt;div&gt;Shift&lt;/div&gt;" style="rounded=1;whiteSpace=wrap;html=1;" vertex="1" parent="WIyWlLk6GJQsqaUBKTNV-1">
          <mxGeometry x="280" y="880" width="80" height="40" as="geometry" />
        </mxCell>
        <mxCell id="5l5CEExYWrX9c8F28rg7-45" style="edgeStyle=orthogonalEdgeStyle;rounded=0;orthogonalLoop=1;jettySize=auto;html=1;exitX=0.5;exitY=1;exitDx=0;exitDy=0;" edge="1" parent="WIyWlLk6GJQsqaUBKTNV-1" source="5l5CEExYWrX9c8F28rg7-30" target="5l5CEExYWrX9c8F28rg7-43">
          <mxGeometry relative="1" as="geometry" />
        </mxCell>
        <mxCell id="5l5CEExYWrX9c8F28rg7-30" value="Capslock&lt;div&gt;! Shift&lt;/div&gt;" style="rounded=1;whiteSpace=wrap;html=1;" vertex="1" parent="WIyWlLk6GJQsqaUBKTNV-1">
          <mxGeometry x="400" y="880" width="80" height="40" as="geometry" />
        </mxCell>
        <mxCell id="5l5CEExYWrX9c8F28rg7-47" style="edgeStyle=orthogonalEdgeStyle;rounded=0;orthogonalLoop=1;jettySize=auto;html=1;exitX=0.5;exitY=1;exitDx=0;exitDy=0;" edge="1" parent="WIyWlLk6GJQsqaUBKTNV-1" source="5l5CEExYWrX9c8F28rg7-31" target="5l5CEExYWrX9c8F28rg7-42">
          <mxGeometry relative="1" as="geometry" />
        </mxCell>
        <mxCell id="5l5CEExYWrX9c8F28rg7-31" value="! Capslock&lt;div&gt;! Shift&lt;/div&gt;" style="rounded=1;whiteSpace=wrap;html=1;" vertex="1" parent="WIyWlLk6GJQsqaUBKTNV-1">
          <mxGeometry x="640" y="880" width="80" height="40" as="geometry" />
        </mxCell>
        <mxCell id="5l5CEExYWrX9c8F28rg7-51" style="edgeStyle=orthogonalEdgeStyle;rounded=0;orthogonalLoop=1;jettySize=auto;html=1;" edge="1" parent="WIyWlLk6GJQsqaUBKTNV-1" source="5l5CEExYWrX9c8F28rg7-42" target="5l5CEExYWrX9c8F28rg7-49">
          <mxGeometry relative="1" as="geometry" />
        </mxCell>
        <mxCell id="5l5CEExYWrX9c8F28rg7-42" value="shift = 0" style="rounded=1;whiteSpace=wrap;html=1;" vertex="1" parent="WIyWlLk6GJQsqaUBKTNV-1">
          <mxGeometry x="520" y="960" width="200" height="40" as="geometry" />
        </mxCell>
        <mxCell id="5l5CEExYWrX9c8F28rg7-50" style="edgeStyle=orthogonalEdgeStyle;rounded=0;orthogonalLoop=1;jettySize=auto;html=1;" edge="1" parent="WIyWlLk6GJQsqaUBKTNV-1" source="5l5CEExYWrX9c8F28rg7-43" target="5l5CEExYWrX9c8F28rg7-49">
          <mxGeometry relative="1" as="geometry" />
        </mxCell>
        <mxCell id="5l5CEExYWrX9c8F28rg7-43" value="shift = 1" style="rounded=1;whiteSpace=wrap;html=1;" vertex="1" parent="WIyWlLk6GJQsqaUBKTNV-1">
          <mxGeometry x="280" y="960" width="200" height="40" as="geometry" />
        </mxCell>
        <mxCell id="5l5CEExYWrX9c8F28rg7-54" style="edgeStyle=orthogonalEdgeStyle;rounded=0;orthogonalLoop=1;jettySize=auto;html=1;exitX=0;exitY=1;exitDx=0;exitDy=0;" edge="1" parent="WIyWlLk6GJQsqaUBKTNV-1" source="5l5CEExYWrX9c8F28rg7-49" target="5l5CEExYWrX9c8F28rg7-53">
          <mxGeometry relative="1" as="geometry" />
        </mxCell>
        <mxCell id="5l5CEExYWrX9c8F28rg7-55" style="edgeStyle=orthogonalEdgeStyle;rounded=0;orthogonalLoop=1;jettySize=auto;html=1;exitX=1;exitY=1;exitDx=0;exitDy=0;entryX=0.5;entryY=0;entryDx=0;entryDy=0;" edge="1" parent="WIyWlLk6GJQsqaUBKTNV-1" source="5l5CEExYWrX9c8F28rg7-49" target="5l5CEExYWrX9c8F28rg7-52">
          <mxGeometry relative="1" as="geometry" />
        </mxCell>
        <mxCell id="5l5CEExYWrX9c8F28rg7-49" value="Ctrl pressed?" style="rhombus;whiteSpace=wrap;html=1;" vertex="1" parent="WIyWlLk6GJQsqaUBKTNV-1">
          <mxGeometry x="380" y="1040" width="240" height="80" as="geometry" />
        </mxCell>
        <mxCell id="5l5CEExYWrX9c8F28rg7-65" style="edgeStyle=orthogonalEdgeStyle;rounded=0;orthogonalLoop=1;jettySize=auto;html=1;exitX=0.5;exitY=1;exitDx=0;exitDy=0;" edge="1" parent="WIyWlLk6GJQsqaUBKTNV-1" source="5l5CEExYWrX9c8F28rg7-52" target="5l5CEExYWrX9c8F28rg7-61">
          <mxGeometry relative="1" as="geometry" />
        </mxCell>
        <mxCell id="5l5CEExYWrX9c8F28rg7-52" value="ctrl = 1&lt;div&gt;&lt;/div&gt;&lt;div&gt;shift = 0&lt;/div&gt;" style="rounded=1;whiteSpace=wrap;html=1;" vertex="1" parent="WIyWlLk6GJQsqaUBKTNV-1">
          <mxGeometry x="560" y="1160" width="120" height="40" as="geometry" />
        </mxCell>
        <mxCell id="5l5CEExYWrX9c8F28rg7-64" style="edgeStyle=orthogonalEdgeStyle;rounded=0;orthogonalLoop=1;jettySize=auto;html=1;exitX=0.5;exitY=1;exitDx=0;exitDy=0;entryX=0.5;entryY=0;entryDx=0;entryDy=0;" edge="1" parent="WIyWlLk6GJQsqaUBKTNV-1" source="5l5CEExYWrX9c8F28rg7-53" target="5l5CEExYWrX9c8F28rg7-60">
          <mxGeometry relative="1" as="geometry" />
        </mxCell>
        <mxCell id="5l5CEExYWrX9c8F28rg7-53" value="ctrl = 0&lt;div&gt;shift = shift&lt;/div&gt;" style="rounded=1;whiteSpace=wrap;html=1;" vertex="1" parent="WIyWlLk6GJQsqaUBKTNV-1">
          <mxGeometry x="320" y="1160" width="120" height="40" as="geometry" />
        </mxCell>
        <mxCell id="5l5CEExYWrX9c8F28rg7-56" value="Yes" style="text;html=1;align=center;verticalAlign=middle;whiteSpace=wrap;rounded=0;" vertex="1" parent="WIyWlLk6GJQsqaUBKTNV-1">
          <mxGeometry x="560" y="1100" width="40" height="30" as="geometry" />
        </mxCell>
        <mxCell id="5l5CEExYWrX9c8F28rg7-57" value="No" style="text;html=1;align=center;verticalAlign=middle;whiteSpace=wrap;rounded=0;" vertex="1" parent="WIyWlLk6GJQsqaUBKTNV-1">
          <mxGeometry x="400" y="1100" width="40" height="30" as="geometry" />
        </mxCell>
        <mxCell id="5l5CEExYWrX9c8F28rg7-67" style="edgeStyle=orthogonalEdgeStyle;rounded=0;orthogonalLoop=1;jettySize=auto;html=1;entryX=0.5;entryY=0;entryDx=0;entryDy=0;" edge="1" parent="WIyWlLk6GJQsqaUBKTNV-1" source="5l5CEExYWrX9c8F28rg7-60" target="5l5CEExYWrX9c8F28rg7-66">
          <mxGeometry relative="1" as="geometry" />
        </mxCell>
        <mxCell id="5l5CEExYWrX9c8F28rg7-60" value="Find character in keymap[][2]" style="rounded=1;whiteSpace=wrap;html=1;" vertex="1" parent="WIyWlLk6GJQsqaUBKTNV-1">
          <mxGeometry x="280" y="1240" width="200" height="40" as="geometry" />
        </mxCell>
        <mxCell id="5l5CEExYWrX9c8F28rg7-68" style="edgeStyle=orthogonalEdgeStyle;rounded=0;orthogonalLoop=1;jettySize=auto;html=1;entryX=0.5;entryY=0;entryDx=0;entryDy=0;" edge="1" parent="WIyWlLk6GJQsqaUBKTNV-1" source="5l5CEExYWrX9c8F28rg7-61" target="5l5CEExYWrX9c8F28rg7-66">
          <mxGeometry relative="1" as="geometry" />
        </mxCell>
        <mxCell id="5l5CEExYWrX9c8F28rg7-61" value="Find character in ctrlKeyMap[][2]" style="rounded=1;whiteSpace=wrap;html=1;" vertex="1" parent="WIyWlLk6GJQsqaUBKTNV-1">
          <mxGeometry x="520" y="1240" width="200" height="40" as="geometry" />
        </mxCell>
        <mxCell id="5l5CEExYWrX9c8F28rg7-69" style="edgeStyle=orthogonalEdgeStyle;rounded=0;orthogonalLoop=1;jettySize=auto;html=1;entryX=1;entryY=0.5;entryDx=0;entryDy=0;" edge="1" parent="WIyWlLk6GJQsqaUBKTNV-1" source="5l5CEExYWrX9c8F28rg7-66" target="5l5CEExYWrX9c8F28rg7-3">
          <mxGeometry relative="1" as="geometry">
            <Array as="points">
              <mxPoint x="920" y="1340" />
              <mxPoint x="920" y="340" />
            </Array>
          </mxGeometry>
        </mxCell>
        <mxCell id="5l5CEExYWrX9c8F28rg7-66" value="Print the key" style="rounded=1;whiteSpace=wrap;html=1;" vertex="1" parent="WIyWlLk6GJQsqaUBKTNV-1">
          <mxGeometry x="400" y="1320" width="200" height="40" as="geometry" />
        </mxCell>
      </root>
    </mxGraphModel>
  </diagram>
</mxfile>
